<?xml version="1.0" standalone="no"?>
<!DOCTYPE svg PUBLIC "-//W3C//DTD SVG 20010904//EN"
 "http://www.w3.org/TR/2001/REC-SVG-20010904/DTD/svg10.dtd">
<svg version="1.0" xmlns="http://www.w3.org/2000/svg"
 width="560.000000pt" height="399.000000pt" viewBox="0 0 560.000000 399.000000"
 preserveAspectRatio="xMidYMid meet">

<g transform="translate(0.000000,399.000000) scale(0.100000,-0.100000)"
fill="#000000" stroke="none">
<path d="M1220 3254 c-205 -39 -360 -176 -412 -363 -78 -282 110 -572 403
-621 242 -41 508 139 558 378 53 254 -79 489 -325 578 -64 24 -175 37 -224 28z"/>
<path d="M3420 3253 c-621 -41 -1169 -404 -1450 -962 -89 -178 -167 -473 -173
-655 l-2 -80 60 -19 c43 -14 90 -20 165 -20 169 -1 284 35 475 149 116 69 193
94 290 94 99 0 178 -27 305 -103 180 -108 286 -141 450 -140 105 0 190 18 285
57 56 24 205 110 202 117 -1 4 -240 212 -532 464 -291 251 -531 460 -532 464
-4 8 135 66 217 90 129 39 183 44 555 50 360 6 371 7 417 29 80 39 128 123
128 222 0 100 -45 176 -131 222 -43 23 -49 23 -359 24 -173 0 -340 -1 -370 -3z"/>
<path d="M2719 1496 c-19 -7 -75 -36 -123 -65 -104 -63 -253 -126 -351 -148
-107 -25 -307 -22 -419 6 -112 27 -222 71 -309 122 -118 70 -167 89 -230 89
-71 0 -108 -15 -206 -84 -102 -71 -182 -110 -309 -152 -119 -38 -160 -65 -198
-130 -95 -163 23 -370 211 -367 80 1 277 67 414 139 l105 55 105 -49 c211
-100 403 -145 616 -145 224 0 454 55 666 158 l96 47 93 -47 c314 -158 704
-202 1015 -114 108 31 181 58 286 106 l96 45 80 -47 c143 -82 391 -163 461
-150 125 23 212 125 212 247 0 66 -26 124 -78 176 -34 34 -58 46 -142 72 -117
36 -238 96 -323 159 -82 60 -142 85 -207 85 -47 0 -68 -6 -145 -49 -156 -85
-243 -125 -330 -150 -294 -85 -559 -42 -843 137 -100 64 -172 80 -243 54z"/>
</g>
</svg>
